<svg xmlns="http://www.w3.org/2000/svg" viewBox="0 0 64 81"><defs><style>.cls-1,.cls-11,.cls-12{fill:#6c8587;}.cls-2{fill:#181d42;}.cls-3{opacity:0.2;}.cls-10,.cls-17,.cls-19,.cls-20,.cls-21,.cls-4,.cls-5,.cls-6,.cls-7,.cls-8,.cls-9{fill:none;}.cls-17,.cls-19,.cls-20,.cls-21,.cls-4,.cls-6,.cls-8{stroke:#fff;stroke-linejoin:round;}.cls-10,.cls-11,.cls-17,.cls-19,.cls-20,.cls-21,.cls-4,.cls-5,.cls-6,.cls-7,.cls-8{stroke-linecap:round;}.cls-4{stroke-width:0.87px;}.cls-16,.cls-21,.cls-4,.cls-6{opacity:0.6;}.cls-10,.cls-11,.cls-12,.cls-5,.cls-7,.cls-9{stroke:#181d42;stroke-miterlimit:10;}.cls-7{stroke-width:0.94px;}.cls-14,.cls-19,.cls-20,.cls-8{opacity:0.8;}.cls-12,.cls-9{stroke-width:2px;}.cls-10{stroke-width:2px;}.cls-13{fill:#f92a08;}.cls-15{fill:#c42a1a;}.cls-18{fill:#53b9fc;}.cls-19{stroke-width:0.7px;}.cls-20{stroke-width:0.8px;}.cls-21{stroke-width:1.04px;}</style></defs><title>Asset 4</title><g id="Layer_2" data-name="Layer 2"><g id="Layer_1-2" data-name="Layer 1"><rect class="cls-1" x="1" y="34" width="62" height="46" rx="15" ry="15"/><path class="cls-2" d="M48,35A14,14,0,0,1,62,49V65A14,14,0,0,1,48,79H16A14,14,0,0,1,2,65V49A14,14,0,0,1,16,35H48m0-2H16A16,16,0,0,0,0,49V65A16,16,0,0,0,16,81H48A16,16,0,0,0,64,65V49A16,16,0,0,0,48,33Z"/><g class="cls-3"><path class="cls-2" d="M10.46,64.33V49.67C10.46,41.57,16.52,35,24,35H15.54C8.06,35,2,41.57,2,49.67V64.33C2,72.43,8.06,79,15.54,79H24C16.52,79,10.46,72.43,10.46,64.33Z"/></g><path class="cls-4" d="M47,35.67a14,14,0,0,1,14,14v4.67"/><path class="cls-5" d="M26,80V70a3,3,0,0,0-3-3H20a3,3,0,0,1-3-3V60.5a3,3,0,0,0-3-3H1"/><path class="cls-6" d="M24,78.2V70.8a2.52,2.52,0,0,0-2.52-2.52H18a2.52,2.52,0,0,1-2.52-2.52V61.82a2.52,2.52,0,0,0-2.52-2.52H3"/><path class="cls-1" d="M16.06,49a7,7,0,0,1-7-7V34a23,23,0,0,1,46,0v8a7,7,0,0,1-7,7Z"/><path class="cls-2" d="M32.06,12a22,22,0,0,1,22,22v8a6,6,0,0,1-6,6h-32a6,6,0,0,1-6-6V34a22,22,0,0,1,22-22m0-2h0a24,24,0,0,0-24,24v8a8,8,0,0,0,8,8h32a8,8,0,0,0,8-8V34a24,24,0,0,0-24-24Z"/><line class="cls-7" x1="19.5" y1="56" x2="43.5" y2="56"/><g class="cls-3"><path class="cls-2" d="M17.68,40.8V33.6c0-10.39,7-19.06,16.38-21.13A19.92,19.92,0,0,0,29.75,12h0C18.33,12,9.06,21.67,9.06,33.6v7.2A7.05,7.05,0,0,0,16,48h8.62A7.05,7.05,0,0,1,17.68,40.8Z"/></g><path class="cls-8" d="M52.83,30a20.14,20.14,0,0,1,.35,2"/><path class="cls-8" d="M33.06,13a20.14,20.14,0,0,1,2,.1,19.91,19.91,0,0,1,2,.3q1,.2,1.92.49t1.84.67q.9.38,1.75.84t1.65,1q.8.54,1.54,1.15t1.42,1.29q.68.68,1.29,1.42t1.15,1.54q.54.8,1,1.65t.84,1.75q.38.9.67,1.84"/><circle class="cls-1" cx="32" cy="4" r="3.5"/><path class="cls-2" d="M32,1a3,3,0,1,1-3,3,3,3,0,0,1,3-3m0-1a4,4,0,1,0,4,4,4,4,0,0,0-4-4Z"/><g class="cls-3"><path class="cls-2" d="M30.2,4A3,3,0,0,1,32,1.11,1.94,1.94,0,0,0,31.4,1,2.75,2.75,0,0,0,29,4a2.75,2.75,0,0,0,2.4,3,1.94,1.94,0,0,0,.6-.11A3,3,0,0,1,30.2,4Z"/></g><line class="cls-9" x1="32" y1="11" x2="32" y2="7"/><path class="cls-10" d="M36,79"/><path class="cls-10" d="M36,49"/><rect class="cls-2" x="21" y="70" width="2" height="2" rx="1" ry="1"/><rect class="cls-2" x="12" y="61" width="2" height="2" rx="1" ry="1"/><rect class="cls-2" x="5" y="49" width="2" height="2" rx="1" ry="1"/><rect class="cls-2" x="56" y="49" width="2" height="2" rx="1" ry="1"/><path class="cls-11" d="M38,80V70a3,3,0,0,1,3-3h3a3,3,0,0,0,3-3V60.5a3,3,0,0,1,3-3H63"/><rect class="cls-2" x="41" y="70" width="2" height="2" rx="1" ry="1" transform="translate(84 142) rotate(180)"/><rect class="cls-2" x="50" y="61" width="2" height="2" rx="1" ry="1" transform="translate(102 124) rotate(-180)"/><path class="cls-12" d="M19,64"/><path class="cls-2" d="M46,52.5H18a3,3,0,0,1-3-3v-1H49v1A3,3,0,0,1,46,52.5Z"/><path class="cls-13" d="M28.89,43.5a4.91,4.91,0,0,1-2-.42L25,42.25a1.89,1.89,0,0,1-1-1.54,2.32,2.32,0,0,1,.69-2.09l3.43-2.8a5.52,5.52,0,0,1,3.5-1.32H33a4,4,0,0,1,2.54,1l3.76,3.06A2.32,2.32,0,0,1,40,40.66a1.85,1.85,0,0,1-1,1.51l-1.6.64a9.26,9.26,0,0,1-3.47.68Z"/><path class="cls-2" d="M33,35a3.53,3.53,0,0,1,2.23.85L39,38.92a1.84,1.84,0,0,1,.51,1.67,1.39,1.39,0,0,1-.71,1.12l-1.6.64A8.77,8.77,0,0,1,33.9,43h-5a4.42,4.42,0,0,1-1.79-.38l-1.87-.82a1.42,1.42,0,0,1-.7-1.15A1.81,1.81,0,0,1,25.05,39l3.43-2.8A5,5,0,0,1,31.66,35H33m0-1H31.66a6,6,0,0,0-3.81,1.43l-3.43,2.8c-1.38,1.12-1.13,3.8.41,4.48l1.87.82a5.43,5.43,0,0,0,2.19.47h5a9.77,9.77,0,0,0,3.66-.72l1.6-.64c1.58-.64,1.86-3.36.46-4.5l-3.76-3.07A4.51,4.51,0,0,0,33,34Z"/><g class="cls-14"><path class="cls-15" d="M29,42.77a2.24,2.24,0,0,1-.34-3.58l2.81-2.24a5,5,0,0,1,3.12-1.15h.07a3.71,3.71,0,0,0-2.25-.8H31.29a5,5,0,0,0-3.12,1.15l-2.81,2.24A2.24,2.24,0,0,0,25.71,42l1.53.66A4.52,4.52,0,0,0,29,43h.49Z"/></g><path class="cls-2" d="M33,35a3.53,3.53,0,0,1,2.23.85L39,38.92a1.84,1.84,0,0,1,.51,1.67,1.39,1.39,0,0,1-.71,1.12l-1.6.64A8.77,8.77,0,0,1,33.9,43h-5a4.42,4.42,0,0,1-1.79-.38l-1.87-.82a1.42,1.42,0,0,1-.7-1.15A1.81,1.81,0,0,1,25.05,39l3.43-2.8A5,5,0,0,1,31.66,35H33m0-1H31.66a6,6,0,0,0-3.81,1.43l-3.43,2.8c-1.38,1.12-1.13,3.8.41,4.48l1.87.82a5.43,5.43,0,0,0,2.19.47h5a9.77,9.77,0,0,0,3.66-.72l1.6-.64c1.58-.64,1.86-3.36.46-4.5l-3.76-3.07A4.51,4.51,0,0,0,33,34Z"/><g class="cls-16"><polyline class="cls-17" points="35.15 38.34 35.95 39 36.76 39.66"/></g><path class="cls-8" d="M32.5,2.5h0a1,1,0,0,1,1,1h0"/><rect class="cls-2" x="21.52" y="25.5" width="7" height="7" rx="3.5" ry="3.5"/><circle class="cls-18" cx="25.02" cy="29" r="1.75"/><path class="cls-19" d="M25.37,27.95h0a.7.7,0,0,1,.7.7h0"/><rect class="cls-2" x="35.52" y="25.5" width="7" height="7" rx="3.5" ry="3.5"/><circle class="cls-18" cx="39.02" cy="29" r="2"/><path class="cls-20" d="M39.42,27.8h0a.8.8,0,0,1,.8.8h0"/><path class="cls-21" d="M61,60v4.29A13.86,13.86,0,0,1,47,78"/><line class="cls-7" x1="19.5" y1="54" x2="43.5" y2="54"/><line class="cls-7" x1="19.5" y1="56" x2="43.5" y2="56"/></g></g></svg>